# xmcd
#
# Track frame offsets:
#	150
#	15918
#	30474
#	46004
#	64029
#	79024
#	93239
#	118917
#	135293
#	148798
#	167218
#	183948
#	206230
#	228285
#	248114
#	265870
#	289800
#
# Disc length: 4173 seconds
#
# Revision: 1
# Processed by: cddbd v1.5.1PL0 Copyright (c) Steve Scherf et al.
# Submitted via: audiograbber 1.83.01
#
DISCID=e1104b11
DTITLE=Various Artist - Love Kills
DYEAR=2005
DGENRE=New Age
TTITLE0=The Stranglers - Golden Brown
TTITLE1=Inspiral Carpets - This Is How It Feels
TTITLE2=Mano Negra - Out Of Time
TTITLE3=Ben Harper And The Innocent Criminals - Alone
TTITLE4=Morrisey - Moonriver
TTITLE5=Faith No More - Easy
TTITLE6=Lenny Kravitz - Let Love Rule
TTITLE7=Iggy Pop - Sea Of Love
TTITLE8=Nick Gave and Shane MacGowan - What a Wonderful World
TTITLE9=Paul Weller - Wild Wood (Live)
TTITLE10=SunHouse - Monkey Dead
TTITLE11=The Waterboys - The Whole Of The Moon
TTITLE12=Oasis - Cast No Shadow
TTITLE13=Bic Runga - Sway
TTITLE14=Finley Quaye - Even After All
TTITLE15=Syntax - Message
TTITLE16=Suede - Europe Is Our Playground
EXTD=
EXTT0=
EXTT1=
EXTT2=
EXTT3=
EXTT4=
EXTT5=
EXTT6=
EXTT7=
EXTT8=
EXTT9=
EXTT10=
EXTT11=
EXTT12=
EXTT13=
EXTT14=
EXTT15=
EXTT16=
PLAYORDER=
